<svg xmlns="http://www.w3.org/2000/svg" viewBox="568 68 89 93">
	<g id="bishopBlack">
		<path d="M605.4 126.5C601 126.5 598.8 127.2 598.8 128.6 598.8 129.8 600.7 130.5 604.6 130.8L611.7 130.8C620.3 130.8 624.6 130 624.6 128.6 624.6 127.2 622.4 126.5 618 126.5L605.4 126.5M605.4 118.5C601.6 118.5 599.5 118.9 599.1 119.8 598.9 120 598.8 120.2 598.8 120.6 598.8 121.5 599.7 122.1 601.5 122.2 603.8 122.5 607.2 122.6 611.7 122.6 616.3 122.6 619.7 122.5 622 122.2 623.8 122.1 624.6 121.5 624.6 120.6 624.6 119.2 622.4 118.5 618 118.5L605.4 118.5M629.4 124L632 134C632 137 628.9 138.8 622.8 139.3 627.3 141 631.5 141.9 635.3 141.9 635.9 141.9 638.4 141.7 643 141.5 646.7 141.5 649.8 143.5 652.3 147.4 652.6 148.1 653 148.9 653.5 149.7L648.9 156.8C647.5 158.6 646.1 159.7 644.5 160.2 644.2 158.4 641.4 157.3 636.2 156.8L633.2 156.6C622.6 155.7 615.4 153.4 611.7 149.7 608.4 153.3 603.2 155.3 596.4 155.8 594.8 156 592.8 156.2 590.3 156.6 584 157.1 580.3 158 579.3 159.3 579.1 159.5 579 159.8 578.9 160.2 576.7 159.2 574.6 157.1 572.6 153.7 571.8 152.4 570.9 151 569.9 149.7 572.2 145.4 574.7 142.9 577.4 142 578.3 141.6 579.4 141.5 580.5 141.5 580.5 141.5 583 141.6 588.1 141.9 592.1 141.9 596.2 141 600.6 139.3 594.5 138.8 591.5 137 591.5 134 591.5 133.7 592.1 131.5 593.5 127.4 593.9 126 594.2 125.1 594.2 124.6 588.9 118.2 586.3 112.6 586.3 107.6 586.3 102 589.1 96.8 594.7 92.2 599.7 87.9 603.3 85.7 605.5 85.4 603.6 83.1 602.7 80.7 602.7 78.2 602.7 74.2 604.7 71.7 608.8 70.7 609.7 70.5 610.7 70.3 611.7 70.3 616 70.3 618.8 71.9 620.1 75.1L620.8 77.8 620.8 78.2C620.8 80.6 619.8 83 617.9 85.4 619.6 85.9 622 87.2 625.3 89.4 633.2 95 637.2 101 637.2 107.6 637.2 112.6 634.6 118.1 629.4 124M614 112L614 106.1 618.6 106.1 618.6 101.2 614 101.2 614 95.6 609.4 95.6 609.4 101.2 604.9 101.2 604.9 106.1 609.4 106.1 609.4 112 614 112M611.7 75.6C610 75.6 608.9 76.4 608.5 78L608.4 78.7C608.4 80.4 609.2 81.4 610.9 81.8 611.2 81.9 611.5 82 611.7 82 613.9 82 614.9 80.9 614.9 78.7 614.9 76.7 613.9 75.6 611.7 75.6"/>
	</g>
</svg>