<svg xmlns="http://www.w3.org/2000/svg" viewBox="569 210 89 93">
	<path d="M613.1 264.2C607 264.2 602.3 263.9 599 263.4 599.6 264.6 599.9 265.6 599.9 266.5 599.9 267.8 599.6 268.9 599.1 269.7 601.6 268.9 606.3 268.6 613.1 268.6 619.9 268.6 624.5 268.9 627 269.7 626.5 268.9 626.2 267.8 626.2 266.5 626.2 265.5 626.5 264.4 627 263.4 623 263.9 618.3 264.2 613.1 264.2M613.1 217.4C611.3 217.4 610 218.2 609.3 219.9 609.1 220.3 609.1 220.7 609.1 221.2 609.1 223.1 610 224.3 611.9 224.9 612.2 225 612.6 225 613.1 225 615 225 616.3 224.1 616.9 222.3 617 222 617.1 221.6 617.1 221.2 617.1 219.5 616.2 218.3 614.5 217.7 614 217.5 613.5 217.4 613.1 217.4M613.1 272.3C609.8 272.3 605.6 272.6 600.4 273.2 598.9 273.4 598.1 274.2 597.8 275.7 597.8 276.7 600.2 277.3 604.9 277.6 604.5 277.5 604.7 277.5 605.4 277.5 606.2 277.5 608.8 277.5 613.1 277.5 623.1 277.5 628.2 276.9 628.2 275.7 628.2 273.7 625.7 272.6 620.7 272.4L616.9 272.4C615.8 272.4 614.9 272.4 614.1 272.3L613.1 272.3M612.9 260.4C622.6 260.4 628.5 259.5 630.6 257.7 632.1 256.6 633.2 253.6 633.8 248.8 633.4 244.5 630.6 240.4 625.5 236.4 620.6 232.6 616.4 230.5 612.8 230.1 609.4 230.5 605.4 232.6 600.5 236.4 595.5 240.4 592.7 244.5 592.3 248.8 592.9 253.3 593.8 256.1 595.1 257.3 595.5 257.7 595.8 258 596.3 258.2 598.4 259.7 604 260.4 612.9 260.4M610.7 254.1L610.7 248.4 606.3 248.4 606.3 243.4 610.7 243.4 610.7 237.8 615.4 237.8 615.4 243.4 619.8 243.4 619.8 248.4 615.4 248.4 615.4 254.1 610.7 254.1M612.8 280.4C612 280.4 609.7 281.9 606 284.9 603.3 286.8 599 287.8 593.1 288.2 588.7 288.2 585.3 288.4 582.7 288.8 580 289.4 578.6 290.6 578.6 292.3 578.9 294 579.8 294.9 581.3 294.9L588.1 293.9C592.6 293.9 597.3 293.3 602.2 292 607.8 290.6 611.4 288.3 613.1 285.1 615.4 289.6 621.4 292.4 631.1 293.3 631.1 293.3 632.3 293.5 634.5 293.9 636.7 293.9 637.8 293.9 637.8 293.9L644.8 294.9C646.4 294.9 647.3 294 647.5 292.3 647.5 290.6 646.2 289.4 643.4 288.8L629.6 287.8C625.2 287.4 621 285.7 616.9 282.6 615.1 281.2 613.8 280.4 612.8 280.4M613.1 291.7C609.7 295 604.6 297.1 597.8 297.9 595.1 298.1 590.3 298.7 583.4 299.7 581.6 300 580.5 300.8 580.3 302.1 578.6 301.7 576.2 299 573 294.1 572.3 292.9 571.7 292.1 571.4 291.7 574.2 286.2 577.7 283.5 581.9 283.5L589.6 283.9C593.1 283.9 597.2 283.1 602 281.5 595.8 280.7 592.8 278.8 592.8 275.9L595.4 266.1C595.4 266 595.4 265.9 595.4 265.8 590.2 260.2 587.6 254.8 587.6 249.8 587.6 244.2 590.4 239 596 234.3 600.9 230.2 604.5 228 606.9 227.8 605 225.4 604 223 604 220.5 604 216.6 606 214.1 610 213 610.9 212.8 611.9 212.7 613.1 212.7 617.3 212.7 620 214.2 621.3 217.4L622 220.1 622 220.5C622 223.2 621.1 225.6 619.3 227.8 621.6 228 625.2 230.3 630.2 234.5 635.7 239 638.5 244.2 638.5 249.8 638.5 254.7 635.9 260 630.7 265.8 630.7 267 631.2 268.8 632 271 632.9 273.8 633.3 275.4 633.3 275.9 633.3 278.8 630.3 280.7 624.2 281.5 628.8 283.1 632.9 283.9 636.6 283.9L644.2 283.5C648.4 283.5 651.9 286.2 654.8 291.7L650.4 298.4C648.9 300.3 647.4 301.5 645.9 302.1 645.5 300.4 643 299.3 638.4 298.9 639 298.9 637.7 298.8 634.5 298.5 623.7 297.5 616.6 295.2 613.1 291.7"/>
</svg>
