<svg xmlns="http://www.w3.org/2000/svg" viewBox="64 68 89 93">
	<g id="kingBlack">
		<path d="M111.5 124C111.5 125.6 110.5 126.4 108.3 126.4 105.9 126.4 104.7 125.6 104.7 124 104.7 116.9 102.3 111.1 97.6 106.6 93.4 102.8 89.3 100.9 85.3 100.9 79.5 100.9 75.8 103.3 74.4 107.9L73.8 111.4 73.8 111.7C73.8 115.1 76.4 119.9 81.5 126 82.8 127.5 84 128.7 84.9 129.6 86.3 130.7 88.6 131.3 91.8 131.3 95.1 131.3 100.6 130.6 108.1 129.3 115.6 130.6 121.1 131.3 124.5 131.3 127.7 131.3 130 130.7 131.3 129.6 134.9 126.4 137.9 122.5 140.3 118 141.7 115.4 142.4 113.3 142.4 111.7 142.4 106.2 139.9 102.8 135 101.5 133.7 101.1 132.4 100.9 130.9 100.9 126.9 100.9 122.9 102.9 118.8 106.7 114 111 111.5 116.8 111.5 124M139.6 111.7C139.6 115.1 137.2 119.1 132.5 123.8L129.1 126.6 127.8 127.4C126.2 127.7 124.5 127.8 122.6 127.8 117.3 127.8 114.6 126.7 114.6 124.6 114.8 117.9 116.8 112.8 120.6 109.1 123.8 105.8 127.2 104.2 130.6 104.2 135 104.2 137.8 105.8 139 108.9L139.6 111.7M127.3 144.4C127.3 142.2 121 141.1 108.3 141.1 104.9 141.1 101.8 141.2 99.1 141.5L96.1 141.7C91.4 142.3 89.1 143.2 89.1 144.3 89.1 145.6 90.2 146.3 92.6 146.3L108.2 145 123.7 146.3C126.1 146.3 127.3 145.6 127.3 144.4M134.5 147.5C134.4 153.4 125.6 156.3 108.2 156.3 91 156.3 82.2 153.4 82 147.5 81.9 142 81.1 137.1 79.5 132.8 78.6 130.5 76.8 127.5 74.1 123.9 70.7 119.4 69.1 115.3 69.1 111.8 69.1 106.3 71.4 102 76.2 99 78.8 97.3 81.8 96.4 85.1 96.4 89.6 96.4 93.8 98.1 97.9 101.3 97.9 97.4 98.2 94.7 99 93.2 99.6 91.6 101.6 89.6 105 87.3L105 84.3 99.7 81.1 99.7 76.4 104.4 76.4 106 71.6 110.4 71.6 112.1 76.4 116.7 76.4 116.7 81.1 111.5 84.3 111.5 87.3C114.8 89.7 116.8 91.7 117.6 93.4L118.5 97.2C118.6 98.2 118.7 99.6 118.8 101.3 122.8 98.1 127 96.4 131.3 96.4 137.1 96.4 141.5 98.6 144.7 103 146.5 105.6 147.4 108.5 147.4 111.8 147.4 115.3 145.8 119.4 142.4 124L139.4 128.2C136.2 133 134.6 139.5 134.5 147.5M76.8 111.7C76.8 108 78.6 105.7 82.2 104.7 83.3 104.3 84.3 104.2 85.5 104.2 89.1 104.2 92.5 105.8 95.8 109.1 99.5 112.9 101.4 118 101.6 124.6 101.7 126.5 99.7 127.5 95.7 127.8 95.1 127.8 94.4 127.8 93.7 127.8 92 127.8 90.2 127.7 88.4 127.4 85.6 126 82.8 123.3 79.9 119.3 77.8 116.3 76.8 113.7 76.8 111.7"/>
	</g>
</svg>