<svg xmlns="http://www.w3.org/2000/svg" viewBox="65 210 89 93">
	<path d="M109.7 299.1C92.5 299.1 83.8 296.3 83.6 290.5 83.1 282.6 81.8 276.6 79.6 272.6 78.6 270.9 77.3 268.9 75.6 266.6 72.6 262.7 71 259.5 70.7 256.8 70.6 256.1 70.5 255.4 70.5 254.6 70.5 249.2 72.8 244.9 77.4 241.8 78.5 241.1 79.7 240.6 80.9 240.2 85.4 238.5 89.9 238.8 94.4 240.9 96.1 241.7 97.7 242.7 99.3 244L99.5 244.2C99.5 242.3 99.5 240.4 99.7 238.3 99.7 237.7 100 236.9 100.6 235.9 102 233.7 103.6 231.9 105.5 230.6 105.9 230.4 106.2 230.2 106.6 230L106.6 226.9 101.3 223.8 101.3 219.1 106 219.1 107.7 214.2 111.6 214.2 113.3 219.1 118 219.1 118 223.8 112.8 226.9 112.8 230C117.2 232.8 119.5 235.6 119.6 238.5 119.8 240.2 119.9 242.1 119.9 244.2L120 244C125.4 239.5 131.1 238 137 239.6 138.6 240.1 140 240.7 141.4 241.6 146.2 244.5 148.7 248.8 148.8 254.6 148.8 258.1 147.1 262.1 143.6 266.9 140.8 270.8 139 273.7 138.3 275.5 136.9 279.4 136 284.4 135.7 290.5 135.6 296.3 126.9 299.1 109.7 299.1M109.7 255.6L113.4 249.7C114 248.4 114.5 247.2 114.8 246.1 115 245.5 115.1 244.2 115.1 242.3 115.1 237.3 113.3 234.7 109.8 234.7 106.1 234.7 104.2 237.3 104.2 242.3 104.2 244.2 104.3 245.5 104.5 246.1 105.2 248.4 106.6 251.2 108.9 254.4 109.4 255 109.7 255.4 109.7 255.6M144.1 255.4C144.1 251.5 142.8 248.5 140.3 246.5 138.1 244.7 135.6 243.8 132.6 243.8 128.9 243.8 124.9 245.7 120.6 249.4 115.6 253.8 112.7 259.8 112 267.3 112 267.9 113.6 268.6 116.8 269.3 120.5 270 126.7 270.4 135.6 270.4L141.4 262.6C143.2 259.9 144.1 257.5 144.1 255.4M109.7 272.8C107.5 273.8 101 274.6 90 275.3 88.4 275.4 87.1 275.4 86 275.5 86.9 278.8 87.5 282.4 87.7 286.4 93.6 284.5 101 283.5 109.7 283.5 118.5 283.5 125.8 284.5 131.6 286.4 131.9 282.1 132.4 278.5 133.3 275.5L114.2 274C112.5 273.7 111 273.3 109.7 272.8M75.2 255.4C75.2 258.1 77.3 262.1 81.5 267.5 82.5 268.8 83.3 269.8 83.7 270.4L86 270.4C94.9 270.4 101.4 269.8 105.4 268.6 106.7 268.2 107.3 267.8 107.3 267.3 106.6 259.8 103.8 253.8 98.7 249.4 94.5 245.7 90.5 243.8 86.7 243.8 85.5 243.8 84.2 244 82.8 244.5 79.4 245.4 77 247.7 75.8 251.4L75.2 254.9 75.2 255.4M109.7 294.5C117.7 294.5 123.3 294 126.4 293 127.2 292.7 127.6 292.4 127.6 292 127.6 289.8 121.7 288.7 109.8 288.7 105.2 288.7 100.8 289 96.5 289.6 93.3 290.1 91.7 290.9 91.7 292 91.7 293.3 96.8 294.2 106.9 294.5 108 294.5 108.9 294.5 109.7 294.5"/>
</svg>
