<svg xmlns="http://www.w3.org/2000/svg" viewBox="737 210 89 93">
	<path d="M750.7 268.7C751.9 268.7 752.5 269.5 752.5 271.1 752.5 273.3 751.4 274.4 749.2 274.4 748.4 274.4 747.9 273.7 747.9 272.3 747.9 269.9 748.8 268.7 750.7 268.7M759.9 252.9C758.7 252.9 758.1 252.2 758.1 250.7 758.1 248.4 759.5 246.5 762.3 245.1 763.5 244.5 764.6 244.2 765.6 244.2 767.4 244.2 768.4 244.8 768.6 246 768.6 247.9 767 249.8 764 251.6 762.4 252.5 761.1 252.9 759.9 252.9M761 228.7C761.3 229.9 761.5 230.7 761.5 231.1 761.5 231.4 761.4 232.1 761.1 233.2 762.5 233.2 764.4 232.5 766.8 231.1 764.5 229.9 762.5 229.1 761 228.7M745.6 273.1C746.1 275.1 747.5 276.6 749.8 277.6 750.6 277.9 751.4 278.1 752.2 278.1L752.5 278.1C752.6 278.1 753.6 277.6 755.3 276.6 755.8 276.2 756.2 276 756.6 276L757.1 276C757.5 276 757.8 276.3 757.8 276.8L757 279.3C757 280 757.6 280.4 758.8 280.4 759 280.4 760 278.9 762 275.9 765.8 270.1 771.2 265.6 778.2 262.6 778.8 258 780.6 253.9 783.3 250.3 784 249.4 784.7 248.9 785.4 248.9 786.2 248.9 786.5 249.5 786.5 250.6 786.5 250.9 785.8 253.3 784.2 258 783.6 259.9 783.3 261.4 783.3 262.4 783.3 262.6 783.4 263.2 783.6 264 783.6 270.1 781 276.6 775.8 283.3 772.4 287.9 770.5 291.6 770.1 294.4L812.8 294.4C813.1 290.4 813.3 287.5 813.3 285.6 813.3 267.9 807.7 253.7 796.6 243.1 793.3 240 790.5 238.5 788.5 238.5L780.7 238.5C780 238.1 779.4 236.4 778.7 233.3 778.2 230.8 777.5 229.3 776.7 228.7 775.7 231.8 772.5 234.2 767.2 235.9 764.3 236.8 762.4 237.6 761.2 238.5 760.3 241.5 757.5 247.6 752.8 256.8 748.3 265.9 745.9 271.4 745.6 273.1M817.9 299.1L763.8 299.1C764.2 293.2 766.4 287.5 770.5 282.1 773.7 277.8 775.6 275.2 776.2 274.2 777.4 272.3 778.2 270.1 778.4 267.4 772.8 269.8 768.5 273.2 765.4 277.7L763.6 280.7C762.3 282.8 761.5 283.9 761.1 284.2 760.6 284.6 760 284.8 759.4 284.8 756.8 284.8 755 283.9 754 282.1 753.8 281.9 753.8 281.5 753.8 281.2 752.9 281.6 752 281.9 751.2 281.9 747 281.9 743.8 279.3 741.4 274.1 742 270.3 745.7 261.6 752.2 247.9 752.9 246.6 753.4 245.6 753.8 244.8 756.3 239 757.6 234.7 757.6 231.8 757.6 231.3 757.4 228.9 756.9 224.5L757.9 224.5C762.5 224.5 767 226 771.2 228.9 773.5 224.9 775.4 222.9 777 222.9 779.7 224.3 781.6 226.4 782.7 229L784.1 233.3C785 233.1 785.7 233.1 786.3 233.1 793.2 233.1 800 237.4 806.7 246.2 814.5 256.5 818.4 270.5 818.4 288.3 818.4 292.4 818.3 296 817.9 299.1"/>
</svg>
