<svg xmlns="http://www.w3.org/2000/svg" viewBox="736 68 89 93">
	<path d="M758.7 110.4C760.9 110.4 763.2 109.1 765.6 106.6 766.9 105.3 767.5 104.2 767.5 103.3 767.5 102.1 766.5 101.6 764.4 101.6 762 101.6 760 102.7 758.3 104.8 757.5 105.8 757.1 106.9 757.1 108 757.1 109.6 757.6 110.4 758.7 110.4M756.5 82.1C756.7 82.1 757.1 82 757.8 82 761.7 82 765.8 83.3 770.2 85.8 770.7 86.2 771 86.3 771 86.3 773.5 82.3 775.4 80.3 776.7 80.3 779.4 81.8 781.2 83.5 782.1 85.3 782.5 86.2 783.2 88 784 90.7 784.7 90.6 785.4 90.5 786.1 90.5 793.3 90.5 800.2 94.9 806.8 103.8 814.6 114 818.5 128 818.5 145.6 818.5 149.6 818.3 153.1 818 156.3L763.5 156.3C763.7 150.6 765.8 145.1 769.8 139.9 770.3 139.2 770.9 138.5 771.6 137.6 774.8 133.6 776.8 130.5 777.5 128.3 777.8 127.2 778.1 126 778.2 124.8 772.6 127.1 768.3 130.4 765.4 134.8 764.2 136.9 762.7 139.2 761.2 141.5 760.8 142.2 760.1 142.5 759.3 142.5 757.1 142.5 756 141.2 756 138.5 755.2 139.6 754.2 140.2 753.1 140.2 753.1 140.2 752.2 140 750.5 139.5 746.8 138.6 744.1 137 742.6 134.6 742.1 133.9 741.5 132.8 740.9 131.5 741.5 127.8 744.5 120.5 749.8 109.5 753.7 101.5 756.1 95.9 757.1 92.4 757.1 91.6 757.2 90.5 757.2 89.1 757.2 87.9 757 85.5 756.5 82.1M748.8 127.4C746.7 127.4 745.4 128.3 744.7 130.1 744.5 130.5 744.4 131 744.4 131.4 744.4 131.7 744.5 132.2 744.8 132.7 747 132.7 748.4 131.7 748.9 129.9 749 129.6 749.1 129.3 749.1 129 749.1 128.8 749 128.3 748.8 127.4M812.2 147.3L812.2 142.5C812.2 128.5 808.6 117 801.5 108 795.3 100.3 789.6 96.4 784.6 96.4 784.6 96.4 784 96.3 783 96.2 782.8 96.2 782.7 96.3 782.6 96.4 781.5 96.4 780.9 96.9 780.9 97.8 780.9 98.2 781.2 98.6 781.7 99.1 786.4 99.6 791.4 102.9 796.9 109.1 803.9 117.2 807.4 128.9 807.4 144.2 807.4 144.2 807.4 144.4 807.4 145 807.4 148.7 808.2 150.6 809.9 150.6 811.2 150.6 812 149.5 812.2 147.3"/>
</svg>
