<svg xmlns="http://www.w3.org/2000/svg" viewBox="904 68 89 93">
	<path d="M920.1 156.3C920 155.3 920 153.3 920 150.3 920 139.4 923.3 131.4 930 126.1 932 124.5 934.4 123 937.3 121.6 933.9 120.6 931.6 118 930.4 114 930.1 112.7 929.9 111.4 929.9 110 929.9 104.2 932.9 100.1 938.8 97.7 937.3 95.1 936.5 92.7 936.5 90.4 936.5 86.5 938.4 83.6 942.2 81.7 943.9 80.8 945.7 80.4 947.7 80.4 952 80.4 955.2 82.1 957.3 85.4 958.2 86.9 958.7 88.5 958.7 90.4 958.7 92.8 958 95.3 956.5 97.7 959.7 99 962 100.7 963.3 102.9 964.7 105.2 965.4 107.6 965.4 110 965.4 114.4 963.8 117.8 960.7 120.2 960 120.9 959.1 121.3 958.2 121.6 966.1 125.6 971.2 130.9 973.5 137.5 974.7 141.1 975.3 145.3 975.3 150.3 975.3 153.3 975.3 155.3 975.2 156.3L920.1 156.3"/>
</svg>
