<svg xmlns="http://www.w3.org/2000/svg" viewBox="905 210 89 93">
	<path d="M972.2 294C972.2 284.9 969.7 278.2 964.8 273.7 963.2 272.2 961.1 270.7 958.7 269.3 955.4 267.3 953.7 265.5 953.7 263.9 953.7 263 954.6 262.1 956.3 261.1 958.9 259.6 960.5 257.9 961.1 255.9 961.2 255.1 961.3 254.2 961.3 253.1 961.3 249.1 959.3 246 955.2 243.8L952.9 242.1C952.5 241.7 952.3 241.2 952.3 240.7 952.3 239.2 952.8 237.7 953.8 236.3 954.5 235.3 954.9 234.2 954.9 232.9 954.9 230.7 953.7 229 951.2 228 950.5 227.8 949.7 227.6 948.9 227.6 946.5 227.6 944.8 228.7 943.8 230.9 943.4 231.5 943.2 232.2 943.2 232.9 943.2 233.7 943.8 235.2 944.9 237.3 945.6 238.5 945.9 239.6 945.8 240.7 945.8 241.7 944.8 242.7 942.9 243.8 938.9 246.1 936.9 249.2 936.9 253.1 936.9 256.4 938.6 259.1 942 261.1 943.6 262.2 944.4 263.1 944.4 263.9 944.4 265.5 942.7 267.3 939.4 269.3 933.2 273.1 929.2 277.7 927.5 283.1 926.5 286.2 926.1 289.8 926.1 294L972.2 294M921.6 299.1C921.5 298.1 921.4 296.1 921.4 293.2 921.4 282.6 924.5 274.7 930.7 269.5 932.8 267.7 935.4 266.1 938.6 264.4 935.3 263.4 933.1 260.9 932 256.9 931.6 255.6 931.4 254.3 931.4 252.9 931.4 247.2 934.3 243 940.1 240.5 938.8 238 938.1 235.6 938.1 233.2 938.1 229.2 940 226.3 943.9 224.4 945.5 223.6 947.3 223.2 949.2 223.2 953.6 223.2 956.8 224.9 958.9 228.3 959.8 229.7 960.3 231.4 960.3 233.2 960.3 235.5 959.5 238 958 240.5 963.9 242.9 966.9 247.1 966.9 252.9 966.9 257.5 965.2 260.9 961.8 263.3 961.1 263.8 960.4 264.2 959.5 264.4 967.3 268.4 972.3 273.4 974.6 279.5 976.1 283.3 976.8 287.9 976.8 293.2 976.8 296.1 976.8 298 976.7 299.1L921.6 299.1"/>
</svg>
