<svg xmlns="http://www.w3.org/2000/svg" viewBox="232 68 89 93">
	<g id="queenBlack">
		<path d="M254.4 142.9C254.4 144.3 255.4 145 257.4 145L266.3 144.3C266.3 144.3 268.9 144.2 274.1 143.9L276 143.9 291.1 144.7 294.2 145C296.2 145 297.2 144.3 297.2 142.9 297.2 140.4 291.4 139 279.9 138.8L275.9 138.8C266.1 138.8 259.6 139.5 256.4 141 255.1 141.5 254.4 142.1 254.4 142.9M238.3 88.9C236.7 88.9 235.6 89.7 235.2 91.4 235.1 91.6 235.1 91.9 235.1 92.2 235.1 93.8 235.9 94.8 237.5 95.3 237.8 95.3 238 95.4 238.3 95.4 240.4 95.4 241.4 94.3 241.4 92.2 241.4 90 240.4 88.9 238.3 88.9M255.2 80.8C253 80.8 251.8 81.9 251.8 84 251.8 86.2 253 87.3 255.2 87.3 257.3 87.3 258.3 86.2 258.3 84 258.3 81.9 257.3 80.8 255.2 80.8M296.4 80.8C294.9 80.8 293.9 81.5 293.4 83L293.3 84C293.3 86.2 294.3 87.3 296.4 87.3 298.5 87.3 299.6 86.2 299.6 84 299.6 81.9 298.5 80.8 296.4 80.8M313.2 88.9C311.1 88.9 310.1 90 310.1 92.2 310.1 94.3 311.1 95.4 313.2 95.4 315.3 95.4 316.4 94.3 316.4 92.2 316.4 90.5 315.6 89.5 313.9 89.1 313.7 89 313.4 88.9 313.2 88.9M303.9 150.6C303.9 153.1 299.4 154.7 290.6 155.7L278.1 156.4 275.7 156.4C265.2 156.4 257.2 155.5 251.7 153.7 249 153 247.7 151.9 247.7 150.6 247.7 148.1 248.4 145.3 249.8 142.1 250.7 140.2 251.2 138.9 251.2 138.1 251.2 136.5 249.2 133.3 245.3 128.6 243.1 126.1 241.9 124.3 241.5 123.4 241.5 122.9 241.3 121.7 240.7 119.9L239.1 113.5C237.9 109.2 237.2 104.8 236.9 100 232.9 98.4 230.9 95.8 230.9 92.2 230.9 89.1 232.4 86.9 235.2 85.6 236.1 85.1 237.2 84.9 238.3 84.9 241.1 84.9 243.2 86.2 244.6 88.8 245.2 89.9 245.5 91 245.5 92.2L244.9 97.1C244.9 100.9 247.6 105.7 253.1 111.3 253.6 107.7 253.8 104 253.8 100.2 253.8 94.4 252.7 90.7 250.7 89.2 250.5 89 250.3 88.9 250.2 88.8 248.6 87.9 247.8 86.2 247.8 83.8 247.8 80.6 249.3 78.4 252.2 77.2 253.2 76.8 254.2 76.5 255.2 76.5 258.2 76.5 260.4 77.9 261.7 80.7 262.2 81.6 262.4 82.6 262.4 83.8L261.5 89.3C261.5 94.1 263.9 101.5 268.6 111.4 270.4 103.3 271.3 97.1 271.3 92.8 271.3 89.2 270.7 85.9 269.4 82.9 268.9 81.7 268.6 80.9 268.6 80.3 268.6 77.1 270 74.9 272.9 73.7 273.8 73.3 274.8 73.1 275.9 73.1 278.9 73.1 281 74.5 282.2 77.3 282.6 78.3 282.8 79.2 282.8 80.3 282.8 80.5 282.1 82.7 280.6 87.1 280.3 88.2 280.1 90.1 280.1 92.8 280.1 97.1 281 103.3 282.8 111.4 287.5 101.6 289.8 94.2 289.8 89.3L289 83.9 289 83.8C289 80.6 290.5 78.4 293.4 77.2 294.4 76.8 295.4 76.5 296.4 76.5 299.4 76.5 301.5 77.9 302.8 80.7 303.4 81.6 303.6 82.6 303.6 83.8 303.6 86.2 302.8 87.9 301.3 88.9 298.9 90.5 297.7 94.3 297.7 100.3 297.7 104.1 297.9 107.7 298.3 111.3 303.8 105.7 306.6 100.9 306.6 97.1L305.9 92.2C305.9 89.1 307.3 87 310.1 85.7 311 85.2 312 84.9 313.2 84.9 316.3 84.9 318.5 86.3 319.8 89.1L320.5 91.5 320.5 92.2C320.5 95.6 318.5 98.2 314.6 100 314.1 106 312.6 113.2 310.2 121.9 310 122.5 309.9 123.1 309.9 123.4 309.9 124 309.3 125 308 126.4L306.5 128.3C302.3 133 300.3 136.3 300.3 138.1 300.3 138.6 301.3 141.3 303.4 146.1 303.7 147.8 303.9 149.3 303.9 150.6M275.9 76.8C274.2 76.8 273.2 77.6 272.8 79.2 272.7 79.5 272.6 79.8 272.6 80 272.6 81.7 273.4 82.7 275.1 83.1 275.3 83.2 275.6 83.3 275.9 83.3 277.9 83.3 279 82.2 279 80 279 78.5 278.2 77.4 276.8 76.9 276.5 76.8 276.2 76.8 275.9 76.8M299.1 127.1C299.1 124.4 291.4 123 275.9 123 260.3 123 252.5 124.4 252.5 127.3 252.5 128.5 253.6 129.1 255.8 129.1 258.4 129.1 261.7 128.9 265.5 128.4L273.9 128.2 276 128.2C278.4 128.2 283 128.4 289.7 128.8L296 129.1C298.1 129.1 299.1 128.4 299.1 127.1"/>
	</g>
</svg>