<svg xmlns="http://www.w3.org/2000/svg" viewBox="233 210 89 93">
	<path d="M274.6 270.1L280.3 270.1C281.6 270.1 283.1 270.1 284.9 270.2L297.7 271 297.9 271C299.4 271 300.2 270.8 300.2 270.4L300.2 269.8C300.2 267.3 294.5 265.6 283 264.8 280.9 264.6 279.1 264.6 277.6 264.6 269.2 264.6 262.7 265.4 258.1 267.1 256 267.9 255 268.8 255 269.8L255 270.4C255 270.8 255.8 271 257.3 271L274.6 270.1M298.5 275.9C291.7 275.1 284.7 274.6 277.6 274.6 270.1 274.6 263.1 275.1 256.7 275.9 257.7 276.8 258.2 278.5 258.2 280.9 258.2 282.6 258 283.6 257.4 283.9 262.6 283 269.3 282.5 277.6 282.5 285.8 282.5 292.6 283 297.7 283.9 297.2 283.6 297 282.6 297 280.9 297 278.5 297.5 276.8 298.5 275.9M277.6 287C273.2 287 268.3 287.2 262.9 287.7 258.7 288 256.5 289 256.5 290.6 256.5 292.8 263.6 293.9 277.6 293.9 291.6 293.9 298.6 292.8 298.6 290.6 298.6 289.9 298.1 289.3 297 288.7 293.7 287.6 287.2 287 277.6 287M277.6 219.5C275.4 219.5 274.4 220.5 274.4 222.6 274.4 224.8 275.4 225.9 277.6 225.9 279.7 225.9 280.7 224.8 280.7 222.6 280.7 220.5 279.7 219.5 277.6 219.5M277.6 215.8C280.7 215.8 282.8 217.2 284 220L284.7 222.6 284.7 223C284.7 223.5 284.3 224.6 283.7 226.2 282.5 229.7 281.8 232.8 281.8 235.4 281.8 239.6 282.8 245.8 284.7 254.1 289.3 244.3 291.7 236.9 291.7 231.9L290.9 226.3C290.9 223.3 292.2 221.2 294.9 219.9 295.8 219.4 296.9 219.1 298 219.1 301.1 219.1 303.3 220.5 304.6 223.2 305.1 224.3 305.3 225.3 305.3 226.3 305.3 228.6 304.6 230.3 303 231.6 300.7 234 299.5 237.7 299.4 243 299.4 245.2 299.6 248.8 300.1 253.8 305.6 248.1 308.4 243.4 308.4 239.8L307.8 234.7C307.8 231.9 309.1 229.8 311.7 228.4 312.7 227.8 313.8 227.5 314.9 227.5 317.8 227.5 320 228.8 321.5 231.5L322.3 234 322.3 234.7C322.3 238.3 320.3 240.9 316.3 242.7 316.1 246.4 314.7 253.7 312.1 264.6 311.9 265.1 311.8 265.5 311.7 266 311.7 267.2 310.3 269.2 307.5 272.2 303.8 275.9 302 278.8 302 280.8 302 281.8 303 284.3 305.1 288.4 305.4 289.2 305.6 290.4 305.6 291.9L305.6 292.8C305.5 293.1 305.5 293.4 305.5 293.7L305.5 293.9 305.6 294C305.6 297.1 297.3 298.8 280.7 299.1 279.6 299.1 278.5 299.1 277.5 299.1L272 299 271.9 299C263.8 298.8 257.7 298.1 253.4 297 250.8 296.2 249.4 295.2 249.4 294 249.5 293.9 249.5 293.4 249.4 292.4 249.4 292.3 249.4 292.1 249.4 291.9 249.4 289.9 250.1 287.7 251.4 285.1 252.4 283 252.9 281.6 252.9 280.8 252.9 279.4 252.2 277.8 250.7 275.9L244.4 268.7C243.7 267.7 243.4 266.8 243.4 266 240.7 255 239.2 247.9 238.9 244.7 238.8 244 238.7 243.3 238.7 242.7 234.8 240.9 232.8 238.3 232.8 234.7 232.8 231.9 234.1 229.8 236.7 228.4 237.8 227.8 238.9 227.5 240 227.5 243 227.5 245.2 228.9 246.5 231.6 247 232.6 247.2 233.6 247.2 234.7L246.6 239.8C246.6 243.6 249.4 248.2 254.9 253.8 255.3 250 255.5 246.4 255.5 243 255.5 238.3 255 235.1 253.8 233.6 253.4 233 252.8 232.3 251.9 231.5 250.3 230.5 249.6 228.7 249.6 226.3 249.6 223.3 251 221.1 253.8 219.8 254.8 219.3 255.8 219.1 256.9 219.1 259.9 219.1 262.1 220.5 263.4 223.2 263.9 224.2 264.2 225.2 264.2 226.3L263.4 231.8 263.4 231.9C263.4 236.8 265.7 244.2 270.4 254.1 272.2 246.3 273.1 240 273.1 235.4 273.1 231.9 272.4 228.7 271.1 225.6 270.6 224.4 270.4 223.5 270.4 223 270.4 220 271.7 217.8 274.5 216.5 275.4 216 276.5 215.8 277.6 215.8M314.9 231.6C313.5 231.6 312.5 232.3 311.9 233.7 311.8 234 311.8 234.4 311.8 234.7 311.8 236.5 312.6 237.5 314.1 238 314.4 238 314.6 238.1 314.9 238.1 317 238.1 318.1 237 318.1 234.7 318.1 232.7 317 231.6 314.9 231.6M298 223.4C296.5 223.4 295.5 224.1 295 225.6L294.9 226.6C294.9 228.1 295.6 229.2 297.1 229.7 297.3 229.8 297.6 229.8 298 229.8 300.2 229.8 301.3 228.7 301.3 226.6 301.3 224.4 300.2 223.4 298 223.4M256.9 223.4C254.8 223.4 253.7 224.4 253.7 226.6 253.7 228.7 254.8 229.8 256.9 229.8 259 229.8 260 228.7 260 226.6 260 224.4 259 223.4 256.9 223.4M240 231.6C237.9 231.6 236.8 232.7 236.8 234.7 236.8 237 237.9 238.1 240 238.1 242.1 238.1 243.1 237 243.1 234.7 243.1 233.3 242.4 232.3 240.9 231.8 240.7 231.7 240.4 231.6 240 231.6M277.6 239.9C276.4 247.5 274.8 252.9 272.9 256.3L271 259.4 271 259.5C270.7 259.3 269.6 258 267.6 255.6 265.2 252.7 262.5 247.2 259.8 239 259.9 240.2 260 241.4 260 242.7 260 246.8 259.3 253 257.8 261.5 253.2 258.7 248.7 254.3 244.3 248.3 245.7 255.7 246.9 260.5 247.6 262.9 248.2 264.6 248.8 265.6 249.6 265.8 256.6 261.8 266 259.8 277.6 259.8 289.3 259.8 298.6 261.8 305.6 265.8 307.2 265.3 308.9 259.5 310.8 248.3 306.3 254.5 301.8 258.9 297.3 261.5 295.9 254 295.1 248.1 295.1 243.8 295.1 242.6 295.2 241.1 295.4 239 293.7 244.2 291.7 248.8 289.5 252.8 288.3 254.6 286.9 256.3 285.5 258 284.8 258.7 284.3 259.2 284.2 259.5L281.3 254.5C281.2 254.1 281.1 253.8 280.9 253.4 280.3 251.6 279.1 247 277.6 239.9"/>
</svg>
