<svg xmlns="http://www.w3.org/2000/svg" viewBox="400 68 89 93">
	<g id="rookBlack">
		<path d="M414.9 156.3L412.4 153.9 412.4 144.7 425.5 131.8 425.5 106.1 415.4 96.2 415.4 84.7 419 81.1 428.2 81.1 430.5 83.3 430.5 86.5 435.4 86.5 435.4 83.3 437.6 81.1 451.9 81.1 454.1 83.3 454.1 86.5 459 86.5 459 83.3 461.2 81.1 470.5 81.1 474.1 84.7 474.1 96.2 464.1 106.1 464.1 131.8 477.1 144.7 477.1 153.9 474.5 156.3 414.9 156.3M430.1 128.8L430.1 133.2 459.4 133.2 459.4 128.8 430.1 128.8M430.1 105.6L430.1 110 459.4 110 459.4 105.6 430.1 105.6"/>
	</g>
</svg>