<svg xmlns="http://www.w3.org/2000/svg" viewBox="401 210 89 93">
	<g id="rookWhite">
		<path d="M430.4 249.1L430.4 271.9 459.8 271.9 459.8 249.1 430.4 249.1M415.2 299.1L412.7 296.7 412.7 287.8 425.9 274.5 425.9 248.7 414.5 238.7 414.5 227 418.3 223.4 429.9 223.4 432.1 225.6 432.1 228.9 435.8 228.9 435.8 225.6 438 223.4 452.2 223.4 454.4 225.6 454.4 228.9 458 228.9 458 225.6 460.4 223.4 472 223.4 475.7 227 475.7 238.7 464.4 248.7 464.4 274.5 477.5 287.8 477.5 296.7 475.1 299.1 415.2 299.1M417.2 289L417.2 294 473 294 473 289 417.2 289M429.9 276.2L421.4 284.4 468.9 284.4 460.4 276.2 429.9 276.2M440.2 228.8L440.2 232.1 438.3 234 429.9 234 428 232.1 428 228.5 420.7 228.5 419.1 230.3 419.1 237.6 427.8 244.7 462.4 244.7 471.2 237.6 471.2 230.3 469.5 228.5 462.3 228.5 462.3 232.1 460.4 234 452 234 450 232.1 450 228.8 440.2 228.8"/>
	</g>
</svg>